# xmcd
#
# Track frame offsets:
#	150
#	11177
#	23467
#	37257
#	55955
#	74717
#	89937
#	102062
#	116100
#	131170
#	149167
#	164012
#
# Disc length: 2416 seconds
#
# Revision: 1
# Processed by: cddbd v1.4PL0 Copyright (c) Steve Scherf et al.
# Submitted via: audiograbber 1.82.02
#
DISCID=c1096e0c
DTITLE=Brad Davis - Climbin' Cole Hill
DYEAR=1996
DGENRE=Bluegrass
TTITLE0=Climbin' Cole Hill
TTITLE1=Bradford Rag
TTITLE2=Laural Canyon
TTITLE3=Old Town Blues
TTITLE4=Aderondike
TTITLE5=Hides Ferry Line
TTITLE6=Signal Hill
TTITLE7=Skutland
TTITLE8=Rushin' The Gold
TTITLE9=Divers Waltz
TTITLE10=Boom Town
TTITLE11=Look My Way
EXTD=
EXTT0=
EXTT1=
EXTT2=
EXTT3=
EXTT4=
EXTT5=
EXTT6=
EXTT7=
EXTT8=
EXTT9=
EXTT10=
EXTT11=
PLAYORDER=
